<svg width="24" height="25" viewBox="0 0 24 25" fill="none" xmlns="http://www.w3.org/2000/svg">
<g clip-path="url(#clip0_1120_297)">
<path d="M24 12.5C24 19.1274 18.6274 24.5 12 24.5C5.37258 24.5 0 19.1274 0 12.5C0 5.87258 5.37258 0.5 12 0.5C18.6274 0.5 24 5.87258 24 12.5Z" fill="#CDA5F8" fill-opacity="0.24"/>
<path d="M13.8148 12.8148C13.8148 13.1738 13.7084 13.5246 13.509 13.8231C13.3095 14.1215 13.0261 14.3541 12.6945 14.4915C12.3629 14.6288 11.998 14.6648 11.6459 14.5948C11.2939 14.5247 10.9705 14.3519 10.7167 14.0981C10.4629 13.8443 10.2901 13.5209 10.2201 13.1689C10.15 12.8168 10.186 12.4519 10.3233 12.1203C10.4607 11.7887 10.6933 11.5053 10.9917 11.3059C11.2902 11.1064 11.6411 11 12 11C12.4813 11 12.9429 11.1912 13.2833 11.5315C13.6236 11.8719 13.8148 12.3335 13.8148 12.8148ZM6.81482 11C6.45588 11 6.105 11.1064 5.80656 11.3059C5.50811 11.5053 5.2755 11.7887 5.13815 12.1203C5.00079 12.4519 4.96485 12.8168 5.03487 13.1689C5.1049 13.5209 5.27774 13.8443 5.53155 14.0981C5.78535 14.3519 6.10872 14.5247 6.46076 14.5948C6.8128 14.6648 7.1777 14.6288 7.50932 14.4915C7.84093 14.3541 8.12436 14.1215 8.32378 13.8231C8.52319 13.5246 8.62963 13.1738 8.62963 12.8148C8.62963 12.3335 8.43843 11.8719 8.09808 11.5315C7.75774 11.1912 7.29613 11 6.81482 11ZM17.1852 11C16.8262 11 16.4754 11.1064 16.1769 11.3059C15.8785 11.5053 15.6459 11.7887 15.5085 12.1203C15.3712 12.4519 15.3352 12.8168 15.4052 13.1689C15.4753 13.5209 15.6481 13.8443 15.9019 14.0981C16.1557 14.3519 16.4791 14.5247 16.8311 14.5948C17.1832 14.6648 17.5481 14.6288 17.8797 14.4915C18.2113 14.3541 18.4947 14.1215 18.6941 13.8231C18.8936 13.5246 19 13.1738 19 12.8148C19 12.5765 18.9531 12.3405 18.8619 12.1203C18.7707 11.9001 18.637 11.7001 18.4685 11.5315C18.2999 11.363 18.0999 11.2293 17.8797 11.1381C17.6595 11.0469 17.4235 11 17.1852 11Z" fill="#CDA5F8"/>
</g>
<defs>
<clipPath id="clip0_1120_297">
<rect width="24" height="24" fill="white" transform="translate(0 0.5)"/>
</clipPath>
</defs>
</svg>
